
<svg width="28" height="28" viewBox="0 0 28 28" fill="none" xmlns="http://www.w3.org/2000/svg">
<path fill-rule="evenodd" clip-rule="evenodd" d="M14 1.5C7.09581 1.5 1.5 7.09581 1.5 14V26.5H14C20.9042 26.5 26.5 20.9042 26.5 14C26.5 7.09581 20.9042 1.5 14 1.5ZM0.5 14C0.5 6.54352 6.54352 0.5 14 0.5C21.4565 0.5 27.5 6.54352 27.5 14C27.5 21.4565 21.4565 27.5 14 27.5H0.5V14Z" fill="white"/>
<path fill-rule="evenodd" clip-rule="evenodd" d="M9 15C8.448 15 8 14.553 8 14C8 13.447 8.448 13 9 13C9.552 13 10 13.447 10 14C10 14.553 9.552 15 9 15Z" fill="white"/>
<path fill-rule="evenodd" clip-rule="evenodd" d="M14 15C13.448 15 13 14.553 13 14C13 13.447 13.448 13 14 13C14.552 13 15 13.447 15 14C15 14.553 14.552 15 14 15Z" fill="white"/>
<path fill-rule="evenodd" clip-rule="evenodd" d="M19 15C18.448 15 18 14.553 18 14C18 13.447 18.448 13 19 13C19.552 13 20 13.447 20 14C20 14.553 19.552 15 19 15Z" fill="white"/>
</svg>
