
<svg width="28" height="28" viewBox="0 0 28 28"  xmlns="http://www.w3.org/2000/svg">
<path fill-rule="evenodd" clip-rule="evenodd" d="M14 27H1V14C1 6.81967 6.81967 1 14 1C21.1803 1 27 6.81967 27 14C27 21.1803 21.1803 27 14 27Z" stroke="white"/>
<path fill-rule="evenodd" clip-rule="evenodd" d="M9 15C8.448 15 8 14.553 8 14C8 13.447 8.448 13 9 13C9.552 13 10 13.447 10 14C10 14.553 9.552 15 9 15Z" fill="white"/>
<path fill-rule="evenodd" clip-rule="evenodd" d="M14 15C13.448 15 13 14.553 13 14C13 13.447 13.448 13 14 13C14.552 13 15 13.447 15 14C15 14.553 14.552 15 14 15Z" fill="white"/>
<path fill-rule="evenodd" clip-rule="evenodd" d="M19 15C18.448 15 18 14.553 18 14C18 13.447 18.448 13 19 13C19.552 13 20 13.447 20 14C20 14.553 19.552 15 19 15Z" fill="white"/>
</svg>
